<svg width="189" height="32" viewBox="0 0 189 32" fill="none" xmlns="http://www.w3.org/2000/svg">
<path d="M11.2643 13.9708C11.0729 14.1597 10.7924 14.3014 10.4231 14.396C10.0675 14.5039 9.63662 14.5579 9.13046 14.5579C8.6243 14.5579 8.1456 14.4836 7.69421 14.3352C7.24282 14.1868 6.8735 13.829 6.58625 13.2621L4.55498 9.1721C4.3498 8.75361 4.16513 8.36221 4.00099 7.99775C3.83684 7.61975 3.65898 7.18785 3.46753 6.70191L3.34442 6.72216C3.39918 7.45107 3.42649 8.19353 3.42649 8.94938C3.44022 9.70524 3.44701 10.4477 3.44701 11.1766V14.315C3.29659 14.3555 3.06396 14.396 2.7494 14.4364C2.44842 14.4769 2.14759 14.4972 1.84661 14.4972C1.54563 14.4972 1.2789 14.4769 1.04641 14.4364C0.813928 14.396 0.622324 14.315 0.47191 14.1935C0.321496 14.072 0.20518 13.91 0.123109 13.7075C0.0410372 13.4915 0 13.2149 0 12.8774V2.75366C0.19145 2.48374 0.485639 2.28126 0.882268 2.14623C1.2789 2.0112 1.70299 1.94376 2.15438 1.94376C2.66054 1.94376 3.13924 2.02475 3.59063 2.18673C4.05576 2.33516 4.42508 2.68621 4.6986 3.23959L6.75039 7.32958C6.95557 7.74808 7.14023 8.14618 7.30437 8.52418C7.46852 8.88864 7.64639 9.31384 7.83784 9.79978L7.94042 9.77953C7.88566 9.05062 7.85156 8.32171 7.83784 7.5928C7.82411 6.86389 7.81732 6.13498 7.81732 5.40607V2.12598C7.96773 2.08549 8.19343 2.04499 8.49441 2.0045C8.80897 1.964 9.11674 1.94376 9.41772 1.94376C10.0195 1.94376 10.4779 2.05169 10.7924 2.26772C11.107 2.47019 11.2643 2.90209 11.2643 3.56356V13.9708ZM13.577 1.82227C13.577 1.30939 13.7479 0.87734 14.0899 0.526434C14.4455 0.175527 14.9106 0 15.4851 0C16.0596 0 16.5178 0.175527 16.8598 0.526434C17.2154 0.87734 17.3933 1.30939 17.3933 1.82227C17.3933 2.33516 17.2154 2.7672 16.8598 3.11811C16.5178 3.46902 16.0596 3.64454 15.4851 3.64454C14.9106 3.64454 14.4455 3.46902 14.0899 3.11811C13.7479 2.7672 13.577 2.33516 13.577 1.82227ZM17.2292 14.3757C17.0786 14.4027 16.8529 14.4364 16.5521 14.4769C16.2648 14.531 15.9706 14.5579 15.6698 14.5579C15.3688 14.5579 15.0953 14.5377 14.8491 14.4972C14.6164 14.4567 14.4182 14.3757 14.2541 14.2542C14.0899 14.1327 13.9599 13.9708 13.8642 13.7683C13.7821 13.5523 13.7411 13.2756 13.7411 12.9381V4.69741C13.8915 4.67047 14.1104 4.63667 14.3977 4.59617C14.6985 4.54213 14.9995 4.51519 15.3005 4.51519C15.6013 4.51519 15.868 4.53543 16.1007 4.57593C16.3469 4.61642 16.5521 4.69741 16.7162 4.8189C16.8803 4.94038 17.0035 5.10906 17.0855 5.32509C17.1812 5.52756 17.2292 5.79747 17.2292 6.13498V14.3757ZM22.9378 11.0146C22.9378 11.3655 23.0472 11.6153 23.2661 11.7638C23.4986 11.9122 23.8201 11.9865 24.2304 11.9865C24.4356 11.9865 24.6476 11.973 24.8665 11.946C25.0852 11.9055 25.2768 11.8583 25.441 11.8043C25.5641 11.9527 25.6667 12.1215 25.7488 12.3105C25.8444 12.486 25.8924 12.7019 25.8924 12.9584C25.8924 13.4713 25.694 13.8898 25.2974 14.2137C24.9143 14.5377 24.2304 14.6997 23.2456 14.6997C22.0418 14.6997 21.1117 14.4297 20.4551 13.8898C19.8121 13.3498 19.4908 12.4724 19.4908 11.2576V2.59168C19.6412 2.55118 19.8532 2.51069 20.1268 2.47019C20.4141 2.41615 20.7149 2.3892 21.0296 2.3892C21.6314 2.3892 22.0966 2.49714 22.4249 2.71316C22.7667 2.91564 22.9378 3.35438 22.9378 4.02925V5.32509H25.6256C25.7077 5.47352 25.7829 5.66259 25.8513 5.89201C25.9334 6.10804 25.9744 6.35101 25.9744 6.62092C25.9744 7.09331 25.8649 7.43752 25.6462 7.65354C25.441 7.85602 25.1605 7.95726 24.8049 7.95726H22.9378V11.0146ZM37.5135 14.3757C37.3767 14.4162 37.1578 14.4567 36.8569 14.4972C36.5697 14.5377 36.2687 14.5579 35.9541 14.5579C35.6532 14.5579 35.3796 14.5377 35.1334 14.4972C34.9008 14.4567 34.7026 14.3757 34.5384 14.2542C34.3743 14.1327 34.2442 13.9708 34.1486 13.7683C34.0665 13.5523 34.0255 13.2756 34.0255 12.9381V8.4432C34.0255 7.88981 33.8818 7.50511 33.5946 7.28909C33.3209 7.05967 32.979 6.94488 32.5687 6.94488C32.295 6.94488 32.0352 6.97868 31.789 7.04612C31.5428 7.11356 31.3444 7.19455 31.194 7.28909V14.3757C31.0572 14.4162 30.8382 14.4567 30.5374 14.4972C30.2502 14.5377 29.9492 14.5579 29.6346 14.5579C29.3336 14.5579 29.0601 14.5377 28.8139 14.4972C28.5813 14.4567 28.383 14.3757 28.2189 14.2542C28.0548 14.1327 27.9247 13.9708 27.8291 13.7683C27.747 13.5523 27.7059 13.2756 27.7059 12.9381V1.1946C27.8564 1.16765 28.0753 1.13386 28.3625 1.09336C28.6633 1.03932 28.9643 1.01237 29.2653 1.01237C29.5661 1.01237 29.8329 1.03262 30.0655 1.07312C30.3117 1.11361 30.5169 1.1946 30.681 1.31608C30.8452 1.43757 30.9683 1.60625 31.0504 1.82227C31.146 2.02475 31.194 2.29466 31.194 2.63217V4.61642C31.3717 4.54898 31.6384 4.47469 31.9942 4.3937C32.3635 4.29916 32.7669 4.25197 33.2047 4.25197C34.5589 4.25197 35.6121 4.58948 36.3645 5.26434C37.1305 5.92581 37.5135 6.91794 37.5135 8.24072V14.3757ZM39.5849 1.82227C39.5849 1.30939 39.756 0.87734 40.0979 0.526434C40.4536 0.175527 40.9186 0 41.4931 0C42.0676 0 42.5259 0.175527 42.8678 0.526434C43.2235 0.87734 43.4012 1.30939 43.4012 1.82227C43.4012 2.33516 43.2235 2.7672 42.8678 3.11811C42.5259 3.46902 42.0676 3.64454 41.4931 3.64454C40.9186 3.64454 40.4536 3.46902 40.0979 3.11811C39.756 2.7672 39.5849 2.33516 39.5849 1.82227ZM43.2371 14.3757C43.0867 14.4027 42.861 14.4364 42.56 14.4769C42.2727 14.531 41.9787 14.5579 41.6777 14.5579C41.3769 14.5579 41.1032 14.5377 40.857 14.4972C40.6245 14.4567 40.4261 14.3757 40.262 14.2542C40.0979 14.1327 39.968 13.9708 39.8722 13.7683C39.7901 13.5523 39.749 13.2756 39.749 12.9381V4.69741C39.8996 4.67047 40.1184 4.63667 40.4056 4.59617C40.7066 4.54213 41.0076 4.51519 41.3084 4.51519C41.6094 4.51519 41.8761 4.53543 42.1086 4.57593C42.3548 4.61642 42.56 4.69741 42.7241 4.8189C42.8883 4.94038 43.0114 5.10906 43.0935 5.32509C43.1893 5.52756 43.2371 5.79747 43.2371 6.13498V14.3757ZM47.0171 11.8853C46.8666 11.5478 46.7025 11.1699 46.5246 10.7514C46.3605 10.3329 46.1826 9.85382 45.9912 9.31384C45.8133 8.77385 45.6218 8.15973 45.4167 7.47132C45.2252 6.76936 45.02 5.9663 44.8011 5.06187C44.9926 4.87294 45.2457 4.71096 45.5603 4.57593C45.8886 4.4275 46.2442 4.35321 46.6272 4.35321C47.1059 4.35321 47.5027 4.45444 47.8173 4.65692C48.1318 4.84584 48.3645 5.2103 48.5149 5.75028L50.1358 11.3183H50.2179C50.382 10.8593 50.5394 10.36 50.6898 9.82002C50.8539 9.28004 51.0113 8.72666 51.1617 8.15973C51.3121 7.57925 51.4489 7.00562 51.572 6.4387C51.7089 5.85822 51.825 5.29129 51.9208 4.73791C52.4133 4.48139 52.9535 4.35321 53.5418 4.35321C54.0205 4.35321 54.4172 4.45444 54.7318 4.65692C55.0463 4.85939 55.2037 5.2103 55.2037 5.70979C55.2037 6.07424 55.1559 6.49944 55.0601 6.98538C54.9643 7.45777 54.8344 7.96395 54.6702 8.50394C54.5198 9.04392 54.3352 9.604 54.1163 10.1845C53.9111 10.7514 53.6922 11.3116 53.4597 11.865C53.2272 12.4184 52.9878 12.9448 52.7416 13.4443C52.4953 13.9303 52.2559 14.369 52.0234 14.7604C51.6404 15.4219 51.2848 15.9617 50.9565 16.3802C50.6282 16.7987 50.3136 17.1227 50.0127 17.3521C49.7117 17.5951 49.4109 17.757 49.1099 17.838C48.8089 17.9326 48.4943 17.9798 48.1661 17.9798C47.5916 17.9798 47.1264 17.8111 46.7708 17.4736C46.4153 17.1361 46.2031 16.6975 46.1348 16.1575C46.5725 15.82 47.0103 15.4421 47.4479 15.0236C47.8856 14.6187 48.2824 14.2002 48.638 13.7683C48.4055 13.7008 48.1523 13.5456 47.8788 13.3026C47.6189 13.0461 47.3316 12.5737 47.0171 11.8853ZM60.8259 12.2092C61.0585 12.2092 61.3115 12.189 61.5851 12.1485C61.8723 12.0944 62.0844 12.027 62.2211 11.946V10.3262L60.7438 10.4477C60.3609 10.4746 60.0462 10.5556 59.8 10.6907C59.5538 10.8257 59.4307 11.0282 59.4307 11.2981C59.4307 11.568 59.5333 11.7907 59.7385 11.9663C59.9574 12.1282 60.3199 12.2092 60.8259 12.2092ZM60.6618 4.25197C61.4004 4.25197 62.0707 4.32626 62.6725 4.47469C63.2881 4.62312 63.8079 4.85269 64.2319 5.1631C64.6697 5.46012 65.0048 5.84482 65.2373 6.31721C65.4699 6.7762 65.5861 7.32288 65.5861 7.95726V12.4927C65.5861 12.8436 65.4835 13.1339 65.2783 13.3633C65.0868 13.5794 64.8544 13.7683 64.5807 13.9303C63.6916 14.4567 62.44 14.7199 60.8259 14.7199C60.101 14.7199 59.4444 14.6525 58.8562 14.5174C58.2817 14.3824 57.7825 14.1799 57.3584 13.91C56.948 13.6401 56.6267 13.2959 56.394 12.8774C56.1753 12.4589 56.0658 11.973 56.0658 11.4196C56.0658 10.4882 56.3462 9.77283 56.907 9.27334C57.4679 8.77385 58.3365 8.46344 59.5128 8.34196L62.2006 8.05849V7.91676C62.2006 7.52536 62.0229 7.2486 61.6671 7.08662C61.3253 6.91109 60.8259 6.8234 60.1693 6.8234C59.6496 6.8234 59.1434 6.87744 58.651 6.98538C58.1586 7.09331 57.7141 7.22835 57.3173 7.39033C57.1396 7.26884 56.9891 7.08661 56.866 6.84365C56.7428 6.58713 56.6813 6.32391 56.6813 6.05399C56.6813 5.70309 56.7634 5.42632 56.9275 5.22385C57.1054 5.00782 57.3721 4.8256 57.7277 4.67717C58.1245 4.52873 58.5895 4.42065 59.1229 4.35321C59.6701 4.28576 60.1831 4.25197 60.6618 4.25197ZM79.5411 13.991C79.3497 14.153 79.0487 14.2947 78.6383 14.4162C78.2417 14.5377 77.804 14.5984 77.3252 14.5984C76.7507 14.5984 76.2582 14.5174 75.8479 14.3555C75.4375 14.1799 75.1572 13.9438 75.0066 13.6468C74.8562 13.3364 74.6716 12.9381 74.4527 12.4522C74.2339 11.9527 74.0013 11.3993 73.7551 10.7919C73.5226 10.1845 73.2763 9.54326 73.0164 8.86839C72.7702 8.17998 72.5309 7.48486 72.2983 6.7829C72.0658 6.08094 71.8469 5.39253 71.6417 4.71766C71.4365 4.04279 71.2588 3.40827 71.1082 2.8144C71.2998 2.62547 71.5734 2.45664 71.929 2.30821C72.2983 2.14623 72.6881 2.06524 73.0985 2.06524C73.6046 2.06524 74.015 2.17318 74.3295 2.3892C74.6578 2.59168 74.8973 2.97638 75.0477 3.54331C75.417 4.86609 75.7863 6.13498 76.1556 7.34983C76.5387 8.55113 76.9353 9.80648 77.3457 11.1159H77.4688C77.8381 9.84697 78.2144 8.46344 78.5973 6.96513C78.994 5.46682 79.3702 3.9752 79.7258 2.49044C79.972 2.36895 80.2319 2.26772 80.5054 2.18673C80.7927 2.10574 81.1142 2.06524 81.4698 2.06524C81.9759 2.06524 82.4068 2.18003 82.7624 2.40945C83.1181 2.62547 83.2959 2.98993 83.2959 3.50281C83.2959 3.79982 83.2207 4.23172 83.0702 4.79865C82.9335 5.36558 82.7488 6.0068 82.5162 6.72216C82.2974 7.42412 82.0443 8.15973 81.757 8.92913C81.4835 9.69854 81.203 10.4274 80.9158 11.1159C80.6423 11.7907 80.3823 12.3915 80.1361 12.9179C79.8899 13.4308 79.6917 13.7885 79.5411 13.991ZM84.5079 1.82227C84.5079 1.30939 84.6789 0.87734 85.0209 0.526434C85.3765 0.175527 85.8418 0 86.4166 0C86.9899 0 87.4485 0.175527 87.791 0.526434C88.147 0.87734 88.3235 1.30939 88.3235 1.82227C88.3235 2.33516 88.147 2.7672 87.791 3.11811C87.4485 3.46902 86.9899 3.64454 86.4166 3.64454C85.8418 3.64454 85.3765 3.46902 85.0209 3.11811C84.6789 2.7672 84.5079 2.33516 84.5079 1.82227ZM88.1606 14.3757C88.0097 14.4027 87.7834 14.4364 87.4832 14.4769C87.195 14.531 86.9023 14.5579 86.6006 14.5579C86.3004 14.5579 86.0258 14.5377 85.7799 14.4972C85.5475 14.4567 85.3492 14.3757 85.185 14.2542C85.0209 14.1327 84.891 13.9708 84.7952 13.7683C84.7131 13.5523 84.6721 13.2756 84.6721 12.9381V4.69741C84.8225 4.67047 85.0414 4.63667 85.3286 4.59617C85.629 4.54213 85.9307 4.51519 86.231 4.51519C86.5327 4.51519 86.7998 4.53543 87.0321 4.57593C87.278 4.61642 87.4832 4.69741 87.6476 4.8189C87.8106 4.94038 87.9343 5.10906 88.0157 5.32509C88.1123 5.52756 88.1606 5.79747 88.1606 6.13498V14.3757ZM90.4221 1.21485C90.5578 1.17435 90.7781 1.13386 91.0783 1.09336C91.3786 1.03932 91.6863 1.01237 92.0017 1.01237C92.3019 1.01237 92.5689 1.03262 92.8012 1.07312C93.0487 1.11361 93.2538 1.1946 93.4168 1.31608C93.5812 1.43757 93.7049 1.60625 93.7864 1.82227C93.8694 2.02475 93.9101 2.29466 93.9101 2.63217V4.61642C94.2511 4.48139 94.5739 4.387 94.8741 4.33296C95.1895 4.27892 95.5304 4.25197 95.9 4.25197C96.5563 4.25197 97.1794 4.36675 97.7678 4.59617C98.3547 4.8256 98.8751 5.1631 99.3262 5.60855C99.7773 6.04045 100.133 6.58043 100.393 7.22835C100.654 7.87627 100.784 8.62542 100.784 9.47582C100.784 10.3532 100.646 11.1226 100.373 11.784C100.114 12.4319 99.7441 12.9719 99.2644 13.4038C98.7861 13.8357 98.1977 14.1665 97.5007 14.396C96.8158 14.612 96.0569 14.7199 95.2227 14.7199C94.3205 14.7199 93.5541 14.612 92.925 14.396C92.2958 14.1935 91.7618 13.937 91.3243 13.6265C90.7223 13.208 90.4221 12.6682 90.4221 12.0067V1.21485ZM95.2227 12.0067C95.8518 12.0067 96.3376 11.7976 96.68 11.3791C97.0361 10.9472 97.2126 10.3127 97.2126 9.47582C97.2126 8.62542 97.0361 7.99105 96.68 7.57255C96.324 7.15406 95.8457 6.94488 95.2438 6.94488C94.9692 6.94488 94.7308 6.97183 94.5257 7.02587C94.3341 7.07992 94.1213 7.16091 93.889 7.26884V11.6828C94.0399 11.7773 94.2179 11.8583 94.4231 11.9258C94.6418 11.9798 94.9089 12.0067 95.2227 12.0067ZM107.757 14.7199C106.95 14.7199 106.197 14.612 105.5 14.396C104.815 14.1665 104.213 13.829 103.694 13.3836C103.187 12.9381 102.784 12.3779 102.482 11.703C102.196 11.0282 102.052 10.2385 102.052 9.33408C102.052 8.44319 102.196 7.68049 102.482 7.04612C102.784 6.3982 103.173 5.87177 103.653 5.46682C104.131 5.04832 104.679 4.74461 105.295 4.55568C105.91 4.35321 106.539 4.25197 107.182 4.25197C107.906 4.25197 108.564 4.3599 109.151 4.57593C109.753 4.79195 110.266 5.08881 110.69 5.46682C111.129 5.84482 111.463 6.29696 111.696 6.8234C111.942 7.34983 112.065 7.92346 112.065 8.54443C112.065 9.00342 111.936 9.35433 111.675 9.5973C111.415 9.84027 111.053 9.99555 110.587 10.063L105.519 10.8121C105.67 11.2576 105.978 11.5951 106.443 11.8245C106.909 12.0405 107.441 12.1485 108.043 12.1485C108.605 12.1485 109.131 12.081 109.623 11.946C110.13 11.7976 110.54 11.6287 110.854 11.4398C111.073 11.5749 111.258 11.7638 111.408 12.0067C111.559 12.2497 111.634 12.5062 111.634 12.7762C111.634 13.3836 111.347 13.8357 110.772 14.1327C110.335 14.3622 109.842 14.5174 109.296 14.5984C108.748 14.6794 108.235 14.7199 107.757 14.7199ZM107.182 6.76265C106.853 6.76265 106.566 6.8167 106.32 6.92463C106.088 7.03257 105.896 7.1743 105.746 7.34983C105.595 7.51181 105.479 7.70074 105.397 7.91676C105.328 8.11923 105.287 8.32841 105.273 8.54443L108.783 7.9775C108.74 7.70759 108.591 7.43752 108.33 7.1676C108.07 6.89769 107.687 6.76265 107.182 6.76265ZM118.118 4.009C118.118 3.42852 118.289 2.96968 118.631 2.63217C118.974 2.29466 119.438 2.12598 120.027 2.12598H126.798C126.893 2.27442 126.976 2.47019 127.044 2.71316C127.125 2.95613 127.167 3.21265 127.167 3.48256C127.167 3.99545 127.051 4.3599 126.817 4.57593C126.598 4.79195 126.304 4.89989 125.936 4.89989H121.606V6.7829H126.223C126.318 6.93133 126.401 7.12711 126.469 7.37008C126.552 7.5995 126.592 7.84932 126.592 8.11923C126.592 8.63212 126.482 8.99658 126.264 9.2126C126.045 9.42862 125.751 9.53656 125.381 9.53656H121.606V11.6625H126.879C126.976 11.811 127.057 12.0067 127.125 12.2497C127.208 12.4927 127.249 12.7492 127.249 13.0191C127.249 13.532 127.133 13.9033 126.9 14.1327C126.681 14.3488 126.387 14.4567 126.018 14.4567H120.027C119.438 14.4567 118.974 14.288 118.631 13.9505C118.289 13.613 118.118 13.1542 118.118 12.5737V4.009ZM128.619 6.15523C128.727 5.64234 128.94 5.22385 129.254 4.89989C129.583 4.57593 129.987 4.41395 130.465 4.41395C130.916 4.41395 131.265 4.52189 131.511 4.73791C131.758 4.95393 132.031 5.25764 132.331 5.64904L133.645 7.34983L135.841 4.41395C136.593 4.41395 137.188 4.54898 137.625 4.8189C138.063 5.07541 138.282 5.42632 138.282 5.87177C138.282 6.04729 138.254 6.20927 138.2 6.3577C138.159 6.49274 138.091 6.63447 137.995 6.7829C137.9 6.93133 137.776 7.10016 137.625 7.28909C137.476 7.47802 137.298 7.70074 137.093 7.95726L135.738 9.45557L138.426 12.9584C138.357 13.4713 138.152 13.8762 137.811 14.1732C137.468 14.4702 137.058 14.6187 136.58 14.6187C136.059 14.6051 135.643 14.4567 135.328 14.1732C135.027 13.8898 134.733 13.5456 134.445 13.1406L133.338 11.5816L131.245 14.5579C131.176 14.5579 131.1 14.5579 131.019 14.5579C130.937 14.5715 130.868 14.5782 130.814 14.5782C130.117 14.5782 129.583 14.4364 129.213 14.153C128.858 13.8695 128.68 13.5186 128.68 13.1001C128.68 12.7762 128.756 12.4927 128.905 12.2497C129.07 11.9932 129.343 11.649 129.726 11.2171L131.367 9.33408L128.619 6.15523ZM144.488 4.25197C145.309 4.25197 146.068 4.3599 146.765 4.57593C147.477 4.7784 148.085 5.09566 148.592 5.52756C149.097 5.95946 149.494 6.50614 149.781 7.1676C150.069 7.81552 150.212 8.59163 150.212 9.49606C150.212 10.36 150.088 11.1159 149.843 11.7638C149.597 12.4117 149.248 12.9584 148.797 13.4038C148.344 13.8357 147.798 14.1597 147.156 14.3757C146.526 14.5917 145.822 14.6997 145.042 14.6997C144.454 14.6997 143.906 14.612 143.4 14.4364V17.7975C143.263 17.838 143.044 17.8785 142.744 17.919C142.442 17.9731 142.135 18 141.821 18C141.519 18 141.246 17.9798 141 17.9393C140.766 17.8988 140.569 17.8178 140.404 17.6963C140.24 17.5748 140.118 17.4061 140.035 17.1901C139.953 16.9876 139.912 16.7177 139.912 16.3802V6.66142C139.912 6.29696 139.988 5.99995 140.137 5.77053C140.302 5.54111 140.52 5.33179 140.795 5.14286C141.219 4.87294 141.745 4.65692 142.375 4.49494C143.004 4.33296 143.708 4.25197 144.488 4.25197ZM144.529 11.9865C145.938 11.9865 146.643 11.1564 146.643 9.49606C146.643 8.63212 146.465 7.99105 146.109 7.57255C145.766 7.15406 145.267 6.94488 144.61 6.94488C144.351 6.94488 144.119 6.97868 143.913 7.04612C143.708 7.10016 143.53 7.1676 143.379 7.24859V11.703C143.544 11.784 143.722 11.8515 143.913 11.9055C144.105 11.9596 144.31 11.9865 144.529 11.9865ZM162.235 9.47582C162.235 10.3127 162.105 11.0618 161.845 11.7233C161.584 12.3712 161.216 12.9179 160.737 13.3633C160.272 13.8088 159.711 14.1463 159.054 14.3757C158.398 14.6051 157.666 14.7199 156.859 14.7199C156.052 14.7199 155.32 14.5984 154.664 14.3555C154.006 14.1125 153.439 13.7683 152.961 13.3228C152.496 12.8638 152.133 12.3105 151.873 11.6625C151.614 11.0146 151.484 10.2857 151.484 9.47582C151.484 8.67946 151.614 7.95725 151.873 7.30934C152.133 6.66142 152.496 6.11474 152.961 5.66929C153.439 5.2103 154.006 4.85939 154.664 4.61642C155.32 4.37345 156.052 4.25197 156.859 4.25197C157.666 4.25197 158.398 4.38015 159.054 4.63667C159.711 4.87964 160.272 5.23055 160.737 5.68954C161.216 6.13498 161.584 6.68166 161.845 7.32958C162.105 7.9775 162.235 8.69286 162.235 9.47582ZM155.053 9.47582C155.053 10.2993 155.21 10.9336 155.526 11.3791C155.853 11.811 156.306 12.027 156.879 12.027C157.454 12.027 157.891 11.8043 158.193 11.3588C158.507 10.9134 158.665 10.2857 158.665 9.47582C158.665 8.66592 158.507 8.04495 158.193 7.61305C157.878 7.1676 157.434 6.94488 156.859 6.94488C156.285 6.94488 155.839 7.1676 155.526 7.61305C155.21 8.04495 155.053 8.66592 155.053 9.47582ZM167.425 14.3757C167.287 14.4162 167.068 14.4567 166.768 14.4972C166.48 14.5377 166.18 14.5579 165.865 14.5579C165.564 14.5579 165.291 14.5377 165.044 14.4972C164.812 14.4567 164.614 14.3757 164.449 14.2542C164.285 14.1327 164.155 13.9708 164.06 13.7683C163.977 13.5523 163.936 13.2756 163.936 12.9381V6.86389C163.936 6.55348 163.991 6.29026 164.101 6.07424C164.223 5.84482 164.395 5.64234 164.614 5.46682C164.833 5.29129 165.1 5.13616 165.413 5.00112C165.742 4.85269 166.091 4.72436 166.46 4.61642C166.83 4.50849 167.213 4.4275 167.609 4.37345C168.005 4.30601 168.402 4.27222 168.799 4.27222C169.455 4.27222 169.976 4.4004 170.359 4.65692C170.742 4.89989 170.934 5.30484 170.934 5.87177C170.934 6.06069 170.907 6.24977 170.851 6.4387C170.796 6.61422 170.729 6.7762 170.646 6.92463C170.359 6.92463 170.065 6.93818 169.763 6.96513C169.463 6.99208 169.169 7.03257 168.882 7.08662C168.594 7.14066 168.321 7.2014 168.061 7.26884C167.814 7.32289 167.603 7.39033 167.425 7.47132V14.3757ZM175.859 11.0146C175.859 11.3655 175.97 11.6153 176.188 11.7638C176.421 11.9122 176.742 11.9865 177.152 11.9865C177.358 11.9865 177.57 11.973 177.789 11.946C178.008 11.9055 178.199 11.8583 178.364 11.8043C178.486 11.9527 178.589 12.1215 178.672 12.3105C178.767 12.486 178.815 12.7019 178.815 12.9584C178.815 13.4713 178.616 13.8898 178.219 14.2137C177.837 14.5377 177.152 14.6997 176.167 14.6997C174.965 14.6997 174.034 14.4297 173.378 13.8898C172.735 13.3498 172.414 12.4724 172.414 11.2576V2.59168C172.563 2.55118 172.776 2.51069 173.049 2.47019C173.337 2.41615 173.637 2.3892 173.953 2.3892C174.554 2.3892 175.019 2.49714 175.347 2.71316C175.689 2.91564 175.859 3.35438 175.859 4.02925V5.32509H178.548C178.629 5.47352 178.705 5.66259 178.774 5.89201C178.856 6.10804 178.896 6.35101 178.896 6.62092C178.896 7.09331 178.788 7.43752 178.569 7.65354C178.364 7.85602 178.083 7.95726 177.727 7.95726H175.859V11.0146ZM189 11.4601C189 12.486 188.609 13.289 187.831 13.8695C187.051 14.45 185.901 14.7402 184.383 14.7402C183.809 14.7402 183.275 14.6997 182.783 14.6187C182.291 14.5377 181.865 14.4162 181.511 14.2542C181.168 14.0787 180.895 13.8628 180.69 13.6063C180.499 13.3498 180.402 13.0461 180.402 12.6952C180.402 12.3712 180.471 12.1013 180.607 11.8853C180.745 11.6558 180.909 11.4668 181.101 11.3183C181.497 11.5344 181.948 11.73 182.454 11.9055C182.974 12.0675 183.569 12.1485 184.24 12.1485C184.664 12.1485 184.985 12.0877 185.204 11.9663C185.437 11.8448 185.553 11.6828 185.553 11.4803C185.553 11.2914 185.471 11.1428 185.307 11.0349C185.142 10.9269 184.869 10.8391 184.486 10.7717L183.871 10.6502C182.68 10.4207 181.792 10.063 181.203 9.57705C180.628 9.07757 180.342 8.36891 180.342 7.45107C180.342 6.95158 180.45 6.49944 180.669 6.09449C180.888 5.68954 181.196 5.35203 181.592 5.08212C181.989 4.8122 182.461 4.60287 183.009 4.45444C183.569 4.30601 184.184 4.23172 184.856 4.23172C185.361 4.23172 185.833 4.27222 186.271 4.35321C186.722 4.42065 187.113 4.52873 187.44 4.67717C187.769 4.8256 188.028 5.02137 188.22 5.26434C188.412 5.49376 188.507 5.77053 188.507 6.09449C188.507 6.4049 188.446 6.67496 188.323 6.90439C188.212 7.12041 188.069 7.30264 187.891 7.45107C187.783 7.38363 187.618 7.31604 187.399 7.24859C187.181 7.1676 186.941 7.10016 186.681 7.04612C186.422 6.97868 186.155 6.92464 185.882 6.88414C185.621 6.84365 185.382 6.8234 185.163 6.8234C184.711 6.8234 184.362 6.87744 184.116 6.98538C183.871 7.07991 183.747 7.23505 183.747 7.45107C183.747 7.5995 183.815 7.72099 183.952 7.81552C184.089 7.91006 184.349 7.99775 184.732 8.07874L185.369 8.22047C186.681 8.51749 187.611 8.92913 188.158 9.45557C188.719 9.96845 189 10.6366 189 11.4601Z" fill="white"/>
<path d="M1 21H189" stroke="#983539"/>
<path d="M2 26.0423H3.06357L6.50184 30.293V26.0423H7.56542V31.9577H6.50184L3.08191 27.7155V31.9577H2V26.0423ZM14.0202 31.9577L13.4059 30.6225H10.1693L9.55503 31.9577H8.42727L11.2604 26.0423H12.3698L15.1755 31.9577H14.0202ZM10.5728 29.7352H12.9933L11.783 27.107L10.5728 29.7352ZM14.7669 26.0423H15.9313L17.9118 30.8507L19.9106 26.0423H21.0383L18.4436 31.9577H17.325L14.7669 26.0423ZM21.9133 26.0423H22.9952V31.9577H21.9133V26.0423ZM29.0719 30.6986V29.0507H30.0163V31.231C29.3653 31.6873 28.4026 32 27.5224 32C25.6245 32 24.1483 30.6901 24.1483 29C24.1483 27.3099 25.6428 26.0169 27.5866 26.0169C28.5035 26.0169 29.4203 26.338 30.053 26.8451L29.4387 27.5803C28.9436 27.1577 28.2559 26.9042 27.5866 26.9042C26.2755 26.9042 25.2486 27.8254 25.2486 29C25.2486 30.1831 26.2846 31.1042 27.5958 31.1042C28.0725 31.1042 28.6135 30.9521 29.0719 30.6986ZM36.3062 31.9577L35.6919 30.6225H32.4553L31.841 31.9577H30.7133L33.5464 26.0423H34.6558L37.4615 31.9577H36.3062ZM32.8588 29.7352H35.2793L34.069 27.107L32.8588 29.7352ZM36.9201 26.0423H42.0637V26.938H40.0283V31.9577H38.9463V26.938H36.9201V26.0423ZM42.9907 26.0423H44.0726V31.9577H42.9907V26.0423ZM45.7573 26.0423H46.8209L50.2592 30.293V26.0423H51.3228V31.9577H50.2592L46.8393 27.7155V31.9577H45.7573V26.0423ZM57.4108 30.6986V29.0507H58.3552V31.231C57.7042 31.6873 56.7415 32 55.8613 32C53.9634 32 52.4872 30.6901 52.4872 29C52.4872 27.3099 53.9817 26.0169 55.9255 26.0169C56.8423 26.0169 57.7592 26.338 58.3918 26.8451L57.7775 27.5803C57.2824 27.1577 56.5948 26.9042 55.9255 26.9042C54.6143 26.9042 53.5874 27.8254 53.5874 29C53.5874 30.1831 54.6235 31.1042 55.9346 31.1042C56.4114 31.1042 56.9524 30.9521 57.4108 30.6986ZM67.0271 30.6986V29.0507H67.9715V31.231C67.3205 31.6873 66.3578 32 65.4776 32C63.5797 32 62.1035 30.6901 62.1035 29C62.1035 27.3099 63.598 26.0169 65.5418 26.0169C66.4587 26.0169 67.3755 26.338 68.0082 26.8451L67.3939 27.5803C66.8988 27.1577 66.2111 26.9042 65.5418 26.9042C64.2307 26.9042 63.2038 27.8254 63.2038 29C63.2038 30.1831 64.2398 31.1042 65.551 31.1042C66.0277 31.1042 66.5687 30.9521 67.0271 30.6986ZM69.503 26.0423H70.5849V31.0535H73.363V31.9577H69.503V26.0423ZM77.2705 26.0169C79.1868 26.0169 80.6721 27.3099 80.6721 29C80.6721 30.6901 79.1868 32 77.2705 32C75.3543 32 73.869 30.6901 73.869 29C73.869 27.3014 75.3543 26.0169 77.2705 26.0169ZM77.2797 26.9127C76.0144 26.9127 74.9692 27.8254 74.9692 29C74.9692 30.1746 76.0236 31.1042 77.2797 31.1042C78.5358 31.1042 79.5627 30.1746 79.5627 29C79.5627 27.8254 78.5358 26.9127 77.2797 26.9127ZM84.6106 26.0423C85.9401 26.0423 86.7653 26.6 86.7653 27.5211C86.7653 28.1803 86.3339 28.6789 85.6375 28.8394C86.4992 28.9746 87.0133 29.5408 87.0133 30.3352C87.0133 31.3493 86.1235 31.9577 84.6748 31.9577H81.8233V26.0423H84.6106ZM84.5556 28.493C85.2433 28.493 85.6559 28.2056 85.6559 27.6986C85.6559 27.2085 85.2433 26.9296 84.5556 26.938H82.9053V28.493H84.5556ZM84.5556 31.062C85.3991 31.0704 85.9034 30.7577 85.9034 30.2084C85.9034 29.6845 85.3991 29.3634 84.5556 29.3718H82.9053V31.062H84.5556ZM93.0556 31.9577L92.4409 30.6225H89.2048L88.59 31.9577H87.4627L90.296 26.0423H91.4053L94.2115 31.9577H93.0556ZM89.6076 29.7352H92.029L90.8191 27.107L89.6076 29.7352ZM95.0667 26.0423H96.1474V31.0535H98.9266V31.9577H95.0667V26.0423ZM101.952 26.0423H107.096V26.938H105.059V31.9577H103.978V26.938H101.952V26.0423ZM113.322 31.9577H112.093L110.92 30.1662C110.828 30.1746 110.727 30.1746 110.627 30.1746H109.104V31.9577H108.022V26.0423H110.627C112.268 26.0423 113.212 26.7775 113.212 28.062C113.212 29.0085 112.735 29.6761 111.883 29.9803L113.322 31.9577ZM109.104 29.2789H110.627C111.617 29.2789 112.185 28.8901 112.185 28.0873C112.185 27.3099 111.617 26.938 110.627 26.938H109.104V29.2789ZM119.407 31.9577L118.793 30.6225H115.557L114.942 31.9577H113.815L116.646 26.0423H117.757L120.562 31.9577H119.407ZM115.959 29.7352H118.379L117.169 27.107L115.959 29.7352ZM124.049 26.0423C125.974 26.0423 127.368 27.2845 127.368 29C127.368 30.707 125.965 31.9577 124.022 31.9577H121.417V26.0423H124.049ZM124.076 31.062C125.324 31.062 126.276 30.2085 126.276 29.0085C126.276 27.8 125.295 26.938 124.031 26.938H122.499V31.062H124.076ZM128.527 26.0423H133.111V26.938H129.609V28.5437H132.744V29.431H129.609V31.062H133.221V31.9577H128.527V26.0423ZM136.476 26.0423H137.641L139.2 30.8507L140.75 26.0423H141.812L143.371 30.8507L144.921 26.0423H146.039L143.894 31.9577H142.785L141.262 27.3437L139.721 31.9577H138.603L136.476 26.0423ZM146.792 26.0423H147.874V31.9577H146.792V26.0423ZM148.798 26.0423H153.942V26.938H151.907V31.9577H150.825V26.938H148.798V26.0423ZM154.869 26.0423H155.95V28.6113H159.351V26.0423H160.434V31.9577H159.351V29.507H155.95V31.9577H154.869V26.0423ZM164.871 26.0423H169.455V26.938H165.951V28.5437H169.088V29.431H165.951V31.062H169.565V31.9577H164.871V26.0423ZM175.646 31.9577L175.032 30.6225H171.795L171.181 31.9577H170.053L172.887 26.0423H173.996L176.801 31.9577H175.646ZM172.198 29.7352H174.618L173.408 27.107L172.198 29.7352ZM181.508 27.4873C180.811 27.0986 180.115 26.938 179.629 26.938C178.997 26.938 178.583 27.1577 178.583 27.5549C178.583 28.8479 182.049 28.1549 182.04 30.2845C182.04 31.3408 181.032 31.9915 179.619 31.9915C178.61 31.9915 177.657 31.6113 176.998 31.0535L177.465 30.1916C178.125 30.7493 178.95 31.0535 179.638 31.0535C180.39 31.0535 180.839 30.7915 180.839 30.3352C180.839 29.0169 177.373 29.7521 177.373 27.6479C177.373 26.6338 178.317 26 179.711 26C180.546 26 181.361 26.2451 181.958 26.6085L181.508 27.4873ZM183.306 26.0423H187.89V26.938H184.388V28.5437H187.524V29.431H184.388V31.062H188V31.9577H183.306V26.0423Z" fill="white"/>
</svg>
